<svg t="1727180176288" class="icon" viewBox="0 0 1024 1024" version="1.1" xmlns="http://www.w3.org/2000/svg" p-id="1237" width="200" height="200"><path d="M945.737143 0l-39.131429 170.642286-65.243428 17.92h-6.509715c-6.509714 0-6.509714 0-13.019428 9.069714l-6.582857 8.996571-58.660572 296.374858c-6.582857 0-13.092571-8.996571-19.602285-8.996572-26.112 0-58.660571 35.913143-78.262858 26.916572-19.529143 0-52.150857-26.843429-71.68-26.843429q-13.019429 0-71.753142 26.916571c-13.092571 0-58.733714-26.916571-78.262858-26.916571-19.602286 0-58.733714 26.916571-71.68 26.916571-19.602286 0-52.297143-26.916571-78.409142-26.916571-6.436571 0-12.946286 0-19.456 8.996571l-58.806858-62.902857-6.436571-9.069714c-6.582857-8.923429-6.582857-8.923429-13.019429-8.923429l-58.733714-26.989714-45.714286-170.715428H0V1024h1024V0h-78.262857zM574.025143 880.420571c-13.019429 0-32.621714 8.923429-45.641143 17.92h-32.621714c-13.019429-8.996571-32.621714-17.92-45.641143-17.92L404.48 826.514286c6.582857 0 19.529143-8.996571 26.038857-8.996572 26.112 0 58.806857 26.916571 78.262857 26.916572h6.582857c19.529143 0 52.150857-26.916571 78.262858-26.916572 6.509714 0 13.019429 0 26.112 8.996572l-45.714286 53.833143z m143.433143-143.798857l-39.058286 26.916572-13.092571 17.993143c-19.529143 0-52.150857-26.916571-71.68-26.916572q-13.092571 0-71.753143 26.916572c-13.092571 0-58.660571-26.916571-78.262857-26.916572s-58.733714 26.916571-71.68 26.916572l-13.165715-8.996572-39.058285-26.916571-6.582858-35.84c19.602286 8.923429 45.641143 17.92 58.733715 17.92 19.529143 0 45.641143-26.989714 71.68-26.989715 26.112 0 58.733714 26.989714 78.262857 26.989715h6.582857c19.602286 0 52.150857-26.989714 78.262857-26.989715 26.112 0 52.150857 26.989714 71.68 26.989715 13.165714 0 39.131429-8.996571 58.733714-17.993143l-19.602285 26.916571z m19.602285-107.812571c-26.112 0-58.660571 26.989714-78.262857 26.989714-19.529143 0-52.150857-26.989714-71.68-26.989714q-13.019429 0-71.753143 26.989714c-13.092571 0-58.733714-26.989714-78.262857-26.989714-19.602286 0-58.733714 26.989714-71.68 26.989714-13.165714 0-45.714286-26.989714-78.409143-26.989714l-12.946285-53.833143c19.529143 0 58.660571 26.916571 78.189714 26.916571 19.602286 0 45.714286-26.916571 71.68-26.916571 26.185143 0 58.806857 26.916571 78.336 26.916571h6.582857c19.529143 0 52.150857-26.916571 78.262857-26.916571 26.038857 0 52.150857 26.916571 71.68 26.916571 19.602286 0 58.733714-26.916571 78.262857-26.916571v53.833143z" p-id="1238"></path></svg>